# Max2Obj Version 4.0 Mar 10th, 2001
#
# object Plane01 to come ...
#
v  -59.842186 0.000000 59.655617
v  58.896751 0.000000 59.655617
v  -59.842186 0.000000 -59.083321
v  58.896751 0.000000 -59.083321
# 4 vertices

vt  0.000000 0.000000 0.000000
vt  1.000000 0.000000 0.000000
vt  0.000000 1.000000 0.000000
vt  1.000000 1.000000 0.000000
# 4 texture vertices

vn  0.000000 1.000000 -0.000000
vn  0.000000 1.000000 -0.000000
vn  0.000000 1.000000 -0.000000
vn  0.000000 1.000000 -0.000000
# 4 vertex normals

g Plane01
s 1
f 3/3/3 1/1/1 4/4/4
f 1/1/1 2/2/2 4/4/4
# 2 faces

g
